<svg version="1" xmlns="http://www.w3.org/2000/svg" width="2154.667" height="2154.667" viewBox="0 0 1616.000000 1616.000000"><path d="M276.5 503.1c-75.1 7.1-137.2 32.7-184.2 76.1C42.7 625 12.6 684.7 2.5 757 .3 772.8-.6 818.8.9 837.3c9.8 115.5 72.8 208.2 170.1 250 29.9 12.9 66.6 22.1 101.9 25.7 13.2 1.3 61.9 1.3 77.6 0 52.3-4.4 100.2-14.9 139.7-30.5 22.4-8.9 53.7-26 75.5-41.1 9.8-6.8 34.3-26.1 34.3-27 0-.6-93.9-109.7-95.4-110.8-.8-.6-4.6 1.8-11.4 7.1-30.7 23.9-74.7 41.5-113.3 45.2-18.8 1.8-43.9 2.3-55.2 1.1-43.6-4.5-75.9-26-90.2-59.9-2.2-5.3-8.3-24.5-9.9-31.4l-.6-2.7h362.9l3.1-9.8c11.2-36.3 13.3-86.3 5.5-134.9-4.8-29.8-11.5-52.8-21.4-72.9-22.6-46.1-58.9-81.9-108.2-106.9C430 520.3 396 510 353.8 504.4c-14.6-1.9-62.3-2.7-77.3-1.3zm58.8 155.4c10.8 1.6 22.6 5.3 30.2 9.3 2.7 1.5 8.4 6.1 12.6 10.2 6.3 6.2 8.5 9.2 12.2 17 6.6 13.7 10.7 31.9 10.7 47.6v6.4h-86.5c-74.9 0-86.5-.2-86.5-1.4 0-3.5 4.3-23.2 6.5-30.1 6.5-19.7 18.5-36 34.9-47.4 16-11.1 40.6-15.4 65.9-11.6zM986.6 504.1c-30.2 4.2-61.2 19.9-92.6 47.3-4.2 3.6-13.4 12.8-20.4 20.6-7.1 7.7-13.1 13.8-13.5 13.5-.3-.4-6-15.4-12.7-33.3l-12.2-32.7-108.6-.3L618 519v152h48v271h-48v151h341l-.2-75.3-.3-75.2-34.3-.3-34.3-.2.4-113.8.3-113.7 2.2-8.4c6.8-25.4 21.9-37.1 48.2-37.1 19.7 0 31.7 6.2 38.5 19.8 3.3 6.5 4.8 13.9 7.7 36.7l2.2 18 .4 174.7.3 174.8H1289l-.2-76.8-.3-76.7-34.8-.3-34.8-.2.4-104.8.3-104.7 2.6-10.5c6.7-27.2 14.7-39.2 30.5-45.6 12-4.8 32.1-5.9 41.7-2.4 15.2 5.7 24.7 23.5 28.1 52.5 1.3 11.1 1.5 38.9 1.5 191.2V1093h292V938h-55.8l-.5-97.3c-.4-78.4-.8-100.8-2.1-115.7-5-56.2-10.5-82.2-24.4-113.7-23.6-53.2-67-89.1-123.3-101.7-20.1-4.5-35.1-5.9-63.4-6-27.4-.1-33.8.5-51.6 5-36.7 9.2-72.8 31-107.7 65.3-6.3 6.1-11.5 11.1-11.7 11.1-.1 0-4-5.1-8.5-11.3-10.9-14.7-26-29.7-38-37.5-23.7-15.7-52.7-26.1-85-30.7-13.5-2-47.6-2.8-57.4-1.4z"/></svg>